# xmcd
#
# Track frame offsets: 
#        150
#        11304
#        24664
#        35887
#        48948
#        62445
#        70652
#        81644
#        95849
#        109928
#        125108
#        139434
#        150448
#        159897
#        175334
#        187661
#        199878
#        212308
#        225979
#        234487
#
# Disc length: 3227 seconds
#
# Revision: 0
# Processed by: cddbd v1.5.1PL0 Copyright (c) Steve Scherf et al.
# Submitted via: ExactAudioCopy v0.95a5
#
DISCID=090c9914
DTITLE=nat king cole - somewhere along the way
DYEAR=1900
DGENRE=Blues
TTITLE0=straigten up and fly right
TTITLE1=it's only a paper moon
TTITLE2=jumpin at capitol
TTITLE3=route 66
TTITLE4=what is this thing called Love?
TTITLE5=I'm in the mood for love
TTITLE6=babs
TTITLE7=I just can't see for looking
TTITLE8=If you can't smile and say yes
TTITLE9=the man I love
TTITLE10=sweet lorraine
TTITLE11=night lights (live)
TTITLE12=somewhere along the way
TTITLE13=embraceable you
TTITLE14=autumn leaves
TTITLE15=unforgettable
TTITLE16=mona lisa (live)
TTITLE17=darling je vous aime beaucoup
TTITLE18=but not for me
TTITLE19=this can't be love
EXTD=
EXTT0=
EXTT1=
EXTT2=
EXTT3=
EXTT4=
EXTT5=
EXTT6=
EXTT7=
EXTT8=
EXTT9=
EXTT10=
EXTT11=
EXTT12=
EXTT13=
EXTT14=
EXTT15=
EXTT16=
EXTT17=
EXTT18=
EXTT19=
PLAYORDER=
